<svg xmlns="http://www.w3.org/2000/svg" viewBox="0 0 99 58" class="br_fill-current br_h-11 xl:pointer-fine:br_h-16">
    <path d="M75.6 5.5c-.7 0-1.3.6-1.3 1.3 0 .7.7 1.4 1.5 1.2.3 1.1.9 2.1 1.8 2.8l.4.2.4-.3c.7-.6 1.4-1.7 1.7-2.8h.3c.7 0 1.3-.6 1.3-1.3s-.7-1.2-1.4-1.2c-.8 0-1.3.6-1.3 1.3 0 .9-.5 2.1-1.1 2.9-.6-.7-1-1.8-1.1-2.9.1-.6-.5-1.2-1.2-1.2zm16.5 11.6c-2.5-6.2-6.1-8-7.6-8.6.1-.4.1-.7.1-1.2 0-3.6-3-6.5-6.6-6.5-3.5 0-6.3 2.8-6.8 6.4-.7 8.7 5 13.5 7.8 15.7 1.6 1.2 2.4 2.1 1.5 3.6-.6.8-1.2 2-1.8 2.2-1.6.3-2.1 1.3-2.1 1.3H78c1.8 0 2.3-.1 4.1-3 1.7-2.9-1-4.5-2.1-5.4-2.8-2.1-8-6.4-7.3-14.2v-.1c.3-3 2.5-5.2 5.4-5.2a5.16 5.16 0 0 1 3.7 8.8c-.9 1-2.2 1.5-3.6 1.5-.5 0-.9-.1-1.3-.2-1.4-.4-2 .6-2 .6l-.1.1.1.1c.9.6 2.2.9 3.3.9 1.8 0 3.4-.6 4.6-1.9.6-.6 1.1-1.3 1.4-2 1.2.5 4.4 2.1 6.7 7.7.6 1.4 1.1 2.8 1.6 4-1.8 0-8.1-.2-11.2-5.1-.8-1.3-2.1-1-2.1-1 3.2 7.7 12.3 7.5 14 7.6.8 2 1.5 3.6 1.8 4.5-.7 0-2.1-.3-3.7-1.7a7.11 7.11 0 0 0-5.1-1.9l-4 6.3s1.9 0 2.7-1.2l2.2-3.5c1.1.1 2.2.6 3.3 1.5 2.1 1.7 3.4 1.9 4.7 1.9 1.2.1 1.9-.3 1.9-.3s-2.4-5."></path>
</svg> 